<svg width="24" height="34" xmlns="http://www.w3.org/2000/svg">
 <g id="Layer_1">
  <title>Layer 1</title>
  <path fill="none" stroke="#ffffff" id="svg_4" d="m7.14114,4.52368c0,0.02074 0.03289,0.01438 0.04509,0.04148c0.00863,0.01916 0.0066,0.04756 0.02255,0.06223c0.01594,0.01467 0.0066,0.02682 0.02255,0.04149c0.01594,0.01467 0.04509,0 0.04509,0.02074c0,0.02074 0.02255,0.02074 0.02255,0.04149c0,0.02074 0,0.04149 0,0.06223c0,0.02074 0.02255,0.04149 0.02255,0.06223c0,0.02074 0.01034,0.03513 0.02255,0.06223c0.00863,0.01916 -0.00518,0.04204 0,0.06223c0.01158,0.04514 0.03289,0.07661 0.04509,0.10371c0.01725,0.03833 -0.01725,0.06539 0,0.10372c0.0122,0.0271 0.02255,0.04149 0.02255,0.06223c0,0.02074 0.01096,0.03783 0.02255,0.08297c0.00518,0.02019 0.01034,0.03513 0.02255,0.06223c0.00863,0.01916 -0.00518,0.04204 0,0.06223c0.01158,0.04514 0.02255,0.06223 0.02255,0.08297c0,0.04148 0.03289,0.05587 0.04509,0.08297c0.01726,0.03833 0.01034,0.05587 0.02255,0.08297c0.00863,0.01916 -0.01594,0.04756 0,0.06223c0.01594,0.01467 0.02255,0.04148 0.02255,0.06223c0,0.02074 0.02255,0.06223 0.02255,0.08297c0,0.02074 0,0.04148 0,0.06223c0,0.02074 0,0.04148 0,0.06223c0,0.04149 0.01034,0.05587 0.02255,0.08297c0.01725,0.03833 0,0.06223 0,0.08297c0,0.02074 0,0.04148 0,0.06223c0,0.02074 0,0.04149 0,0.06223c0,0.02074 0.02255,0.02074 0.04509,0.02074c0.02255,0 0.02426,-0.0128 0.04509,-0.02074c0.05891,-0.02245 0.09018,-0.08297 0.15781,-0.1452c0.02255,-0.02074 0.06763,-0.06223 0.09018,-0.08297c0.02255,-0.02074 0.04569,-0.05746 0.06763,-0.06223c0.04906,-0.01065 0.06141,-0.04611 0.13526,-0.12446c0.04178,-0.04432 0.09798,-0.07686 0.13526,-0.12446c0.02948,-0.03763 0.0726,-0.07872 0.13526,-0.1452c0.07385,-0.07835 0.14004,-0.13927 0.2029,-0.18669c0.07397,-0.0558 0.10628,-0.08736 0.15781,-0.1452c0.04042,-0.04537 0.11788,-0.07736 0.22544,-0.16594c0.04751,-0.03913 0.10628,-0.1081 0.15781,-0.16594c0.04042,-0.04537 0.11272,-0.10372 0.18035,-0.16594c0.04509,-0.04149 0.12656,-0.10987 0.18036,-0.16594c0.03336,-0.03477 0.06763,-0.08297 0.09018,-0.10371c0.02255,-0.02074 0.06763,-0.02074 0.06763,-0.04149c0,-0.02074 -0.04509,-0.02074 -0.06763,-0.02074c-0.02255,0 -0.03818,-0.00952 -0.06763,-0.02074c-0.02083,-0.00794 -0.03818,-0.00952 -0.06763,-0.02074c-0.02083,-0.00794 -0.04509,0 -0.06763,0c-0.02255,0 -0.04509,0 -0.06763,0c-0.02255,0 -0.04509,0 -0.06763,0c-0.02255,0 -0.02915,-0.00607 -0.04509,-0.02074c-0.01594,-0.01467 -0.0468,0.00794 -0.06763,0c-0.02946,-0.01123 -0.04509,-0.02074 -0.06763,-0.02074c-0.02255,0 -0.04852,0.01587 -0.09018,0c-0.02946,-0.01123 -0.04509,-0.02074 -0.06763,-0.02074c-0.02255,0 -0.04509,0 -0.09018,0c-0.04509,0 -0.09018,0 -0.13526,0c-0.04509,0 -0.06763,0 -0.11272,-0.02074c-0.04509,-0.02074 -0.09047,-0.01742 -0.11272,-0.02074c-0.07037,-0.01051 -0.09018,-0.04149 -0.13526,-0.04149c-0.02255,0 -0.04852,0.01587 -0.09018,0c-0.02946,-0.01123 -0.04509,-0.02074 -0.06763,-0.02074c-0.02255,0 -0.04509,0 -0.06763,0c-0.02255,0 -0.04111,-0.01009 -0.09018,-0.02074c-0.02194,-0.00477 -0.04509,0 -0.06763,0c-0.02255,0 -0.04509,0 -0.06763,0c-0.02255,0 -0.02915,-0.00607 -0.04509,-0.02074c-0.01594,-0.01467 -0.06763,-0.02074 -0.09018,-0.02074c-0.02255,0 -0.02915,-0.00607 -0.04509,-0.02074c-0.03188,-0.02933 -0.06615,-0.00299 -0.11272,-0.02074c-0.06586,-0.0251 -0.13526,-0.04149 -0.15781,-0.04149c-0.06763,0 -0.09018,0 -0.11272,0c-0.02255,0 -0.01563,-0.03026 -0.04509,-0.04149c-0.02083,-0.00794 -0.06763,0 -0.09018,0c-0.02255,0 -0.04509,0 -0.06763,0c-0.02255,0 -0.04509,0 -0.04509,0.02074c0,0.02074 0,0.04149 0,0.06223c0,0.02074 0.02255,0.02074 0.02255,0.04149c0,0.02074 0.01392,0.04307 0.02255,0.06223c0.0122,0.0271 0.02255,0.04149 0.02255,0.06223c0,0.02074 0.0066,0.02682 0.02255,0.04149c0.01594,0.01467 0.02255,0.02074 0.02255,0.04149c0,0.02074 0.0066,0.04756 0.02255,0.06223c0.01594,0.01467 0.0066,0.02682 0.02255,0.04149c0.01594,0.01467 0.02255,0.02074 0.02255,0.04148c0,0.02074 0,0 -0.02255,0c-0.02255,0 -0.02915,-0.00607 -0.04509,-0.02074c-0.01594,-0.01467 -0.02255,-0.02074 -0.02255,-0.04149c0,-0.02074 -0.0066,-0.02682 -0.02255,-0.04149c-0.01594,-0.01467 -0.02255,-0.02074 -0.02255,-0.04149c0,-0.02074 0,-0.04149 0,-0.06223c0,-0.02074 -0.0066,-0.02682 -0.02255,-0.04149c-0.01594,-0.01467 0,-0.04149 0,-0.06223c0,-0.02074 0,-0.04149 0,-0.06223c0,-0.02074 0,-0.04149 0,-0.06223c0,-0.02074 0.02255,-0.02074 0.04509,-0.02074c0.02255,0 0.04569,-0.00477 0.06763,0c0.04906,0.01066 0.06935,0.03355 0.09018,0.04149c0.02946,0.01123 0.04509,0.02074 0.06763,0.02074c0.02255,0 0.05169,-0.01467 0.06763,0c0.01594,0.01467 0.02255,0.02074 0.04509,0.02074c0.02255,0 0.04111,0.01009 0.09018,0.02074c0.02194,0.00477 0.02915,0.00607 0.04509,0.02074c0.01594,0.01467 0.03818,0.00952 0.06763,0.02074c0.04166,0.01587 0.05169,0.00607 0.06763,0.02074c0.01594,0.01467 0.04509,0 0.06763,0c0.02255,0 0.04509,0 0.06763,0c0.02255,0 0.04509,0.02074 0.06763,0.02074c0.02255,0 0.05169,-0.01467 0.06763,0c0.01594,0.01467 0.02255,0.02074 0.04509,0.02074c0.02255,0 0.04509,0 0.06763,0c0.02255,0 0.05169,-0.01467 0.06763,0c0.01594,0.01467 0.02255,0.02074 0.04509,0.02074c0.02255,0 0.05169,0.01467 0.06763,0c0.03188,-0.02933 0,-0.06223 0,-0.08297c0,-0.02074 0,-0.04149 0,-0.06223c0,-0.02074 0,-0.04149 0,-0.06223c0,-0.02074 0,-0.04149 0,-0.06223c0,-0.02074 0.0066,-0.02682 0.02255,-0.04149c0.01594,-0.01467 0,-0.04148 0,-0.06223c0,-0.02074 0.02255,-0.02074 0.02255,-0.04149c0,-0.02074 0,-0.04149 0,-0.06223c0,-0.02074 0.02255,-0.02074 0.02255,-0.04149c0,-0.02074 -0.01594,-0.04756 0,-0.06223c0.01594,-0.01467 0.02255,-0.02074 0.02255,-0.04148c0,-0.02074 0.0066,-0.02682 0.02255,-0.04149c0.01594,-0.01467 0.0066,-0.02682 0.02255,-0.04149c0.01594,-0.01467 0.0066,-0.02682 0.02255,-0.04149c0.01594,-0.01467 0.0066,-0.02682 0.02255,-0.04149c0.01594,-0.01467 0.03646,-0.00158 0.04509,-0.02074c0.0122,-0.0271 0.03646,-0.02232 0.04509,-0.04149c0.0122,-0.0271 0.02255,-0.04148 0.04509,-0.04148c0.02255,0 0.02255,-0.02074 0.04509,-0.04149c0.02255,-0.02074 0.02915,-0.02682 0.04509,-0.04149c0.01594,-0.01467 0.0066,-0.02682 0.02255,-0.04149c0.01594,-0.01467 0.05169,-0.02682 0.06763,-0.04149c0.01594,-0.01467 0.01736,-0.0213 0.02255,-0.04149c0.01158,-0.04514 0.03323,-0.04458 0.04509,-0.06223c0.0265,-0.03945 0.05901,-0.06381 0.06763,-0.08297c0.0122,-0.0271 0.05289,-0.01463 0.09018,-0.06223c0.02948,-0.03763 0.05453,-0.05017 0.09018,-0.08297c0.03565,-0.0328 0.04509,-0.06223 0.11272,-0.12446c0.04509,-0.04149 0.09596,-0.0995 0.11272,-0.12446c0.03748,-0.0558 0.04928,-0.07659 0.09018,-0.10371c0.05173,-0.0343 0.09018,-0.06223 0.13526,-0.08297c0.04509,-0.02074 0.09437,-0.05585 0.13526,-0.08297c0.05173,-0.0343 0.07861,-0.02241 0.13526,-0.06223c0.0646,-0.0454 0.09315,-0.07789 0.18036,-0.12446c0.07031,-0.03754 0.11005,-0.06618 0.18035,-0.10371c0.0436,-0.02328 0.07692,-0.02009 0.15781,-0.06223c0.05549,-0.02891 0.08354,-0.06941 0.13526,-0.10371c0.0409,-0.02712 0.11272,-0.04149 0.15781,-0.06223c0.04509,-0.02074 0.10975,-0.04747 0.2029,-0.08297c0.06586,-0.0251 0.1133,-0.03484 0.15781,-0.04149c0.07037,-0.01051 0.13527,-0.04149 0.18036,-0.04149c0.06763,0 0.15384,-0.01009 0.2029,-0.02074c0.06582,-0.0143 0.13318,-0.01029 0.22544,-0.02074c0.04475,-0.00507 0.13703,0.00436 0.2029,-0.02074c0.04657,-0.01775 0.11272,-0.02074 0.18036,-0.02074c0.02254,0 0.09018,0 0.13526,0c0.04509,0 0.11272,0 0.18036,0c0.04509,0 0.09018,0 0.15781,0c0.04509,0 0.11359,-0.00997 0.18036,0c0.07037,0.01051 0.13129,0.03083 0.18036,0.04149c0.06582,0.0143 0.09195,0.01638 0.15781,0.04149c0.09315,0.0355 0.1793,0.06372 0.24799,0.10371c0.11108,0.06468 0.15958,0.09935 0.22544,0.12446c0.04658,0.01775 0.10998,0.05172 0.18036,0.06223c0.04451,0.00665 0.07183,0.01436 0.11272,0.04149c0.05173,0.0343 0.11005,0.08692 0.18035,0.12446c0.0436,0.02328 0.10357,0.07287 0.15781,0.10371c0.06064,0.03449 0.14226,0.02774 0.2029,0.06223c0.02712,0.01542 0.09195,0.05787 0.15781,0.08297c0.04658,0.01775 0.06884,0.03195 0.11272,0.04149c0.04906,0.01066 0.08327,0.07174 0.11272,0.08297c0.06249,0.02381 0.09679,0.03581 0.18035,0.12446c0.07385,0.07835 0.14697,0.15678 0.2029,0.22817c0.02948,0.03763 0.08622,0.06426 0.11272,0.10371c0.01185,0.01765 0.04509,0.04148 0.09018,0.08297c0.04509,0.04149 0.08686,0.06582 0.11272,0.08297c0.0409,0.02712 0.06763,0.06223 0.11272,0.10371c0.04509,0.04149 0.11272,0.08297 0.15781,0.12446c0.04509,0.04149 0.09251,0.08103 0.11272,0.10371c0.05153,0.05784 0.09408,0.07992 0.11272,0.10372c0.02948,0.03763 0.0792,0.07455 0.11272,0.12446c0.03748,0.0558 0.09455,0.1014 0.15781,0.20743c0.09703,0.16264 0.20956,0.43325 0.29307,0.64303c0.04904,0.12319 0.09484,0.20354 0.13526,0.24891c0.05153,0.05784 0.0527,0.13089 0.09018,0.18669c0.01676,0.02495 0.04509,0.06223 0.06763,0.10372c0.02254,0.04148 0.05447,0.09876 0.09018,0.16594c0.03132,0.05892 0.06402,0.14547 0.06763,0.16594c0.01142,0.06475 0.04509,0.12446 0.04509,0.16594c0,0.06223 -0.00722,0.10425 0,0.1452c0.01142,0.06475 0.02254,0.1452 0.02254,0.18669c0,0.04148 0.00345,0.10457 -0.02254,0.18669c-0.01993,0.06298 -0.05605,0.14155 -0.06763,0.18669c-0.01036,0.04037 0.02588,0.08771 0,0.1452c-0.0122,0.0271 -0.03367,0.05971 -0.04509,0.12446c-0.01444,0.0819 0,0.12446 0,0.16594c0,0.06223 -0.01554,0.10538 0,0.16594c0.01158,0.04514 0.02516,0.08222 0.04509,0.1452c0.02599,0.08211 0.01171,0.12526 0.02254,0.18669c0.01142,0.06475 0.04509,0.10372 0.04509,0.16594c0,0.08297 0,0.12446 0,0.18669c0,0.04149 -0.02255,0.06223 -0.02255,0.12446c0,0.02074 -0.02915,0.0683 -0.04509,0.08297c-0.04782,0.044 -0.04113,0.085 -0.06763,0.12446c-0.0237,0.03529 -0.01737,0.08353 -0.02255,0.10372c-0.01158,0.04514 -0.03473,0.06334 -0.04509,0.10371c-0.02316,0.09028 -0.09484,0.12057 -0.13527,0.16594c-0.05153,0.05784 -0.10218,0.10784 -0.13526,0.16594c-0.05232,0.09187 -0.11272,0.1452 -0.15781,0.18669c-0.06763,0.06223 -0.13104,0.108 -0.18036,0.1452c-0.06286,0.04741 -0.11086,0.10489 -0.15781,0.16594c-0.0651,0.08466 -0.11691,0.11808 -0.15781,0.1452c-0.05173,0.0343 -0.11272,0.06223 -0.15781,0.10371c-0.04509,0.04149 -0.08173,0.09155 -0.18036,0.16594c-0.06286,0.04741 -0.11272,0.06223 -0.18036,0.10372c-0.06763,0.04148 -0.15415,0.05886 -0.22544,0.12446c-0.03565,0.0328 -0.08327,0.07174 -0.11272,0.08297c-0.06249,0.02381 -0.11615,0.00487 -0.15781,0.02074c-0.02946,0.01123 -0.06366,0.05157 -0.11272,0.06223c-0.04388,0.00953 -0.06763,0 -0.13527,0c-0.04509,0 -0.10998,0.01024 -0.18036,0.02074c-0.02225,0.00332 -0.11272,0 -0.18036,0c-0.04509,0 -0.11272,0 -0.18035,0c-0.04509,0 -0.13527,0 -0.2029,0c-0.06763,0 -0.13526,0 -0.18036,0c-0.06763,0 -0.13253,-0.01024 -0.2029,-0.02074c-0.04451,-0.00665 -0.13527,-0.02074 -0.2029,-0.02074c-0.06763,0 -0.13703,0.00436 -0.2029,-0.02074c-0.04657,-0.01775 -0.11272,-0.02074 -0.15781,-0.02074c-0.04509,0 -0.10875,-0.01009 -0.15781,-0.02074c-0.04388,-0.00953 -0.11272,-0.02074 -0.13526,-0.02074c-0.04509,0 -0.06763,0 -0.11272,0c-0.04509,0 -0.09018,0 -0.11272,0c-0.06763,0 -0.09018,0 -0.11272,0c-0.02255,0 -0.04509,0 -0.06763,0l-0.02255,0l-0.02255,0"/>
  <line fill="none" stroke="#ffffff" x1="12.29486" y1="6.25651" x2="11.41803" y2="3.4996" id="svg_6"/>
  <line fill="none" stroke="#ffffff" x1="11.91933" y1="6.00615" x2="13.98664" y2="6.25649" id="svg_7"/>
  <rect fill="none" stroke="#ffffff" x="4.95567" y="13.58121" width="14.30616" height="18.40844" id="svg_9" rx="3"/>
 </g>

</svg>